<svg width="155" height="176" viewBox="0 0 155 176" fill="none" xmlns="http://www.w3.org/2000/svg">
<g filter="url(#filter0_d_2_2407)">
<rect y="16.5" width="135" height="135" rx="15" fill="#AA67FE" fill-opacity="0.07"/>
</g>
<path opacity="0.35" d="M83.5916 111.869C86.3192 110.297 89.4611 110.164 92.1806 111.21C94.4495 112.083 97.0443 111.359 98.585 109.48C101.333 106.129 103.549 102.327 105.106 98.1956C105.995 95.8341 105.154 93.2394 103.228 91.6061C101.059 89.7797 99.6833 87.0602 99.6833 83.9987C99.6833 80.9373 101.059 78.2178 103.223 76.3833C105.15 74.75 105.995 72.1593 105.102 69.7938C103.545 65.6663 101.333 61.8606 98.581 58.5095C97.0402 56.6308 94.4455 55.9067 92.1765 56.7797C89.4611 57.8337 86.3192 57.7009 83.5916 56.1279C80.856 54.5469 79.1664 51.8797 78.7239 48.9873C78.3618 46.6218 76.4872 44.731 74.1257 44.3287C71.9694 43.9626 69.7568 43.7695 67.5 43.7695C65.2431 43.7695 63.0305 43.9626 60.8742 44.3287C58.5128 44.731 56.6421 46.6218 56.276 48.9873C55.8335 51.8797 54.1439 54.5469 51.4083 56.1279C48.6807 57.7009 45.5388 57.8337 42.8193 56.7837C40.5504 55.9107 37.9556 56.6348 36.4149 58.5135C33.6672 61.8646 31.4546 65.6663 29.8977 69.7978C29.0046 72.1593 29.8495 74.7541 31.7764 76.3833C33.9408 78.2178 35.3166 80.9373 35.3166 83.9987C35.3166 87.0602 33.9408 89.7797 31.7764 91.6141C29.8495 93.2474 29.0046 95.8382 29.8977 98.2036C31.4546 102.331 33.6672 106.137 36.4189 109.488C37.9597 111.367 40.5544 112.091 42.8234 111.218C45.5388 110.164 48.6807 110.297 51.4083 111.869C54.1439 113.451 55.8335 116.118 56.276 119.01C56.6381 121.376 58.5128 123.266 60.8742 123.669C63.0305 124.035 65.2431 124.228 67.5 124.228C69.7568 124.228 71.9694 124.035 74.1257 123.669C76.4872 123.27 78.3618 121.38 78.7239 119.01C79.1664 116.118 80.856 113.451 83.5916 111.869Z" fill="#C253FE"/>
<path d="M67.4996 67.9067C58.613 67.9067 51.408 75.1118 51.408 83.9984C51.408 92.885 58.613 100.09 67.4996 100.09C76.3863 100.09 83.5913 92.885 83.5913 83.9984C83.5913 75.1118 76.3863 67.9067 67.4996 67.9067Z" fill="#C253FE"/>
<defs>
<filter id="filter0_d_2_2407" x="-20" y="0.5" width="175" height="175" filterUnits="userSpaceOnUse" color-interpolation-filters="sRGB">
<feFlood flood-opacity="0" result="BackgroundImageFix"/>
<feColorMatrix in="SourceAlpha" type="matrix" values="0 0 0 0 0 0 0 0 0 0 0 0 0 0 0 0 0 0 127 0" result="hardAlpha"/>
<feOffset dy="4"/>
<feGaussianBlur stdDeviation="10"/>
<feColorMatrix type="matrix" values="0 0 0 0 0.090196 0 0 0 0 0.0588235 0 0 0 0 0.286275 0 0 0 0.08 0"/>
<feBlend mode="normal" in2="BackgroundImageFix" result="effect1_dropShadow_2_2407"/>
<feBlend mode="normal" in="SourceGraphic" in2="effect1_dropShadow_2_2407" result="shape"/>
</filter>
</defs>
</svg>
