<svg width="40" height="40" viewBox="0 0 40 40" fill="none" xmlns="http://www.w3.org/2000/svg">
<g id="Icon">
<path id="Vector" d="M35.02 20.0075C35.0188 19.7608 34.9677 19.5169 34.8698 19.2904C34.7718 19.064 34.629 18.8598 34.45 18.69L24.025 8.26501C23.61 7.86751 23.1825 7.6925 22.7375 7.6925C21.7225 7.6925 20.9925 8.40751 20.9925 9.37501C20.9925 9.88251 21.1975 10.3125 21.5175 10.63L25.085 14.2475L29.6875 18.4525L26.0075 18.23H6.77248C5.70998 18.23 4.97998 18.96 4.97998 20.0075C4.97998 21.04 5.70998 21.77 6.77248 21.77H26.0075L29.6875 21.545L25.0875 25.7525L21.515 29.37C21.348 29.5335 21.2155 29.7288 21.1253 29.9443C21.0352 30.1599 20.9891 30.3913 20.99 30.625C20.99 31.5925 21.7225 32.3075 22.7375 32.3075C23.1825 32.3075 23.6125 32.1325 23.99 31.7675L34.45 21.31C34.6272 21.1426 34.769 20.9412 34.8669 20.7179C34.9649 20.4945 35.0169 20.2513 35.02 20.0075Z" fill="white"/>
</g>
</svg>
